<?xml version="1.0" encoding="utf-8"?>
<!-- Generator: Adobe Illustrator 25.4.1, SVG Export Plug-In . SVG Version: 6.00 Build 0)  -->
<svg version="1.1" id="Capa_1" xmlns="http://www.w3.org/2000/svg" xmlns:xlink="http://www.w3.org/1999/xlink" x="0px" y="0px"
	 viewBox="0 0 277.5 26.1" style="enable-background:new 0 0 277.5 26.1;" xml:space="preserve">
<style type="text/css">
	.st0{fill-rule:evenodd;clip-rule:evenodd;fill:#C65054;}
	.st1{fill:#333333;}
	.st2{fill:#C65054;}
</style>
<g id="g3370">
	<path id="path3408" class="st0" d="M176.2,2.1c3-3.7,8.9,0.6,8.1,3.2c-0.3,0.9-2.6,0.9-5,0S175.7,3.3,176.2,2.1z"/>
	<g id="_733798384">
		<path id="path3413" class="st0" d="M184.3,24.9c-3-0.7-5.5-2.5-7-5.2c2.1,0.8,4.2,1.5,6.1,2.1c2.5,0.7,4.9,1.6,7.2,2.7
			C188.6,25.2,186.4,25.3,184.3,24.9z"/>
		<path id="path3415" class="st0" d="M185.2,16.5c-4.3-1.3-7.9-2.6-10.1-4.2c-0.1-0.7-0.1-1.4-0.1-2c0-0.3,0.2-0.5,0.5-0.5h22.9
			c0.3,0,0.5,0.2,0.5,0.5c0,0,0,0,0,0c-0.1,3.1-0.8,7.6-3.4,10.9C193,18.9,189,17.7,185.2,16.5z"/>
	</g>
	<g id="_733798768">
		<path id="path3420" class="st0" d="M172.5,0.7c2.4-0.9,5.1-0.9,7.5,0.1c1.1,0.6-1.2,4.3-1.9,4c-1.5-0.7-3.2-1.2-4.3-0.8
			c-1.5,0.5-2.5,1.9-2.4,3.4c0,5.4,5.6,7.5,13.5,10c6.1,1.9,11.9,3.7,11.9,8.7c-4.1-2.3-8.4-4-12.9-5.2c-7.1-2.2-16-5-16-13.4
			C167.8,4.4,169.7,1.7,172.5,0.7z"/>
	</g>
</g>
<g>
	<path class="st1" d="M9.3,8.4c0.1,1.2-0.4,2.5-1.4,3.3c-1.1,0.8-2.5,1.2-3.8,1.1H2.9v4.8H0V4.2h4.3c1.3-0.1,2.6,0.2,3.7,1
		C8.9,6,9.4,7.2,9.3,8.4z M2.9,10.5h0.9c0.7,0,1.4-0.1,1.9-0.5C6.2,9.6,6.4,9,6.4,8.4c0.1-0.5-0.1-1.1-0.5-1.5
		C5.4,6.6,4.8,6.4,4.2,6.5H2.9V10.5z"/>
	<path class="st1" d="M22.7,17.6h-2.8v-5.8h-5.3v5.8h-2.8V4.2h2.8v5.2h5.3V4.2h2.8V17.6z"/>
	<path class="st1" d="M34.3,17.6l-1-3.2h-4.8l-1,3.2h-3l4.7-13.4h3.5l4.7,13.4H34.3z M32.7,12c-0.9-2.9-1.4-4.5-1.5-4.9
		S31,6.4,30.9,6.2C30.7,7,30.1,8.9,29.2,12H32.7z"/>
	<path class="st1" d="M41.9,12.4v5.1H39V4.2h3.9c1.4-0.1,2.8,0.3,4,1c0.9,0.7,1.4,1.8,1.3,3c0,0.8-0.2,1.5-0.7,2.1
		c-0.5,0.6-1.1,1.1-1.8,1.4c2,3,3.3,4.9,3.9,5.8h-3.1l-3.2-5.1L41.9,12.4L41.9,12.4z M41.9,10.1h0.9c0.7,0.1,1.4-0.1,2-0.4
		c0.4-0.3,0.7-0.9,0.6-1.4c0-0.5-0.2-1-0.7-1.3c-0.6-0.3-1.3-0.4-2-0.4h-0.9L41.9,10.1z"/>
	<path class="st1" d="M57.1,17.6L53.8,7.1h-0.1c0.1,2.1,0.2,3.6,0.2,4.3v6.2h-2.5V4.2h3.9l3.2,10.2l0,0l3.4-10.2h3.9v13.4H63v-6.3
		c0-0.3,0-0.6,0-1c0-0.4,0-1.4,0.1-3.1h-0.1l-3.4,10.4L57.1,17.6L57.1,17.6z"/>
	<path class="st1" d="M77.2,17.6l-1-3.2h-4.8l-1,3.2h-3l4.7-13.4h3.5l4.7,13.4H77.2z M75.6,12c-0.9-2.9-1.4-4.5-1.5-4.9
		c-0.1-0.4-0.2-0.7-0.2-0.9C73.6,7,73.1,8.9,72.1,12H75.6z"/>
	<path class="st1" d="M87.6,6.3c-1,0-1.9,0.4-2.5,1.2c-0.6,1-1,2.2-0.9,3.4c0,3,1.1,4.5,3.4,4.5c1.2,0,2.3-0.3,3.4-0.7v2.4
		c-1.2,0.5-2.4,0.7-3.7,0.7c-1.7,0.1-3.3-0.6-4.5-1.8c-1.1-1.4-1.6-3.2-1.5-5c0-1.3,0.2-2.5,0.8-3.7c0.5-1,1.2-1.8,2.2-2.4
		c1-0.6,2.2-0.9,3.3-0.8c1.4,0,2.7,0.3,3.9,0.9l-0.9,2.3c-0.5-0.2-1-0.4-1.5-0.6C88.7,6.4,88.1,6.4,87.6,6.3z"/>
	<path class="st1" d="M101.6,17.6h-7.7V4.2h7.7v2.3h-4.9v2.9h4.5v2.3h-4.5v3.5h4.9V17.6z"/>
	<path class="st1" d="M115.3,4.2v8.6c0,0.9-0.2,1.8-0.7,2.6c-0.4,0.7-1.1,1.3-1.9,1.7c-0.9,0.4-2,0.6-3,0.6c-1.5,0.1-2.9-0.4-4-1.3
		c-1-0.9-1.5-2.3-1.4-3.6V4.2h2.8v8.2c-0.1,0.8,0.2,1.6,0.6,2.3c0.5,0.5,1.3,0.8,2.1,0.7c0.7,0.1,1.5-0.2,2-0.7
		c0.5-0.7,0.7-1.5,0.6-2.3V4.2H115.3z"/>
	<path class="st1" d="M123.7,17.6h-2.8v-11h-3.7V4.2h10.1v2.4h-3.6V17.6z"/>
	<path class="st1" d="M129.4,17.6V4.2h2.8v13.4L129.4,17.6L129.4,17.6z"/>
	<path class="st1" d="M141.2,6.3c-1-0.1-1.9,0.4-2.5,1.2c-0.6,1-0.9,2.2-0.9,3.3c0,3,1.1,4.5,3.4,4.5c1.2,0,2.3-0.3,3.4-0.7V17
		c-1.2,0.5-2.4,0.7-3.7,0.7c-1.7,0.1-3.3-0.6-4.4-1.8c-1.1-1.4-1.6-3.2-1.5-5c0-1.3,0.2-2.5,0.8-3.7c0.5-1,1.2-1.8,2.2-2.4
		c1-0.6,2.2-0.9,3.3-0.8c1.4,0,2.7,0.3,3.9,0.9l-0.9,2.3c-0.5-0.2-1-0.4-1.5-0.6C142.3,6.4,141.8,6.4,141.2,6.3z"/>
	<path class="st1" d="M155.7,17.6l-1-3.2h-4.9l-1,3.2h-3l4.7-13.4h3.5l4.7,13.4H155.7z M154.1,12c-0.9-2.9-1.4-4.5-1.6-4.9
		c-0.1-0.4-0.2-0.7-0.2-0.9c-0.2,0.8-0.8,2.7-1.7,5.8L154.1,12z"/>
	<path class="st1" d="M160.4,17.6V4.2h2.8v11h5.4v2.4L160.4,17.6L160.4,17.6z"/>
</g>
<g>
	<path class="st1" d="M208.8,17h-7.7V3.7h7.7v2.3h-4.9v3h4.5v2.3h-4.5v3.5h4.9V17z"/>
	<path class="st1" d="M222.4,17h-3.2l-3.1-5l-3.1,5h-3l4.4-6.9l-4.1-6.5h3.1l2.9,4.8l2.8-4.8h3l-4.2,6.6L222.4,17z"/>
	<path class="st1" d="M233.3,7.8c0.1,1.3-0.4,2.5-1.4,3.3c-1.1,0.8-2.5,1.2-3.8,1.1h-1.2V17h-2.8V3.7h4.3c1.3-0.1,2.6,0.2,3.7,1
		C232.9,5.5,233.4,6.6,233.3,7.8z M226.9,9.9h0.9c0.7,0.1,1.4-0.1,2-0.5c0.4-0.4,0.7-0.9,0.6-1.5c0-0.5-0.2-1.1-0.5-1.5
		c-0.5-0.4-1.1-0.5-1.7-0.5h-1.3L226.9,9.9L226.9,9.9z"/>
	<path class="st1" d="M243.5,17h-7.7V3.7h7.7v2.3h-4.9v3h4.5v2.3h-4.5v3.5h4.9V17z"/>
	<path class="st1" d="M249.1,11.9v5.1h-2.8V3.7h3.9c1.4-0.1,2.8,0.3,4,1c0.9,0.7,1.4,1.8,1.3,3c0,0.8-0.2,1.5-0.6,2.1
		c-0.5,0.6-1.1,1.1-1.8,1.4c2,3,3.3,4.9,3.9,5.8h-3.1l-3.2-5.1H249.1z M249.1,9.6h0.9c0.7,0.1,1.4-0.1,2-0.5
		c0.4-0.3,0.7-0.9,0.6-1.4c0-0.5-0.2-1.1-0.6-1.4c-0.6-0.3-1.3-0.4-2-0.4h-0.9L249.1,9.6z"/>
	<path class="st1" d="M263.8,17H261V6h-3.6V3.7h10.1V6h-3.6V17z"/>
	<path class="st1" d="M277.4,13.3c0.1,1.1-0.4,2.2-1.3,2.9c-1.1,0.7-2.3,1.1-3.6,1c-1.3,0-2.6-0.2-3.8-0.8v-2.6
		c0.7,0.3,1.5,0.6,2.3,0.9c0.6,0.2,1.1,0.2,1.7,0.2c0.5,0,1-0.1,1.4-0.4c0.3-0.2,0.5-0.6,0.5-1.1c0-0.3-0.1-0.5-0.2-0.7
		c-0.2-0.2-0.4-0.4-0.6-0.6c-0.6-0.3-1.1-0.6-1.7-0.9c-0.7-0.3-1.3-0.7-1.8-1.1c-0.4-0.3-0.7-0.8-1-1.2c-0.3-0.5-0.4-1.1-0.4-1.7
		c-0.1-1.1,0.4-2.1,1.2-2.8c1-0.7,2.1-1.1,3.3-1c0.7,0,1.3,0.1,2,0.2c0.7,0.2,1.3,0.4,2,0.7l-0.9,2.2c-0.6-0.2-1.2-0.5-1.8-0.6
		c-0.5-0.1-0.9-0.2-1.4-0.2c-0.4,0-0.9,0.1-1.2,0.4c-0.3,0.3-0.4,0.6-0.4,1c0,0.2,0.1,0.5,0.2,0.6c0.1,0.2,0.3,0.4,0.5,0.5
		c0.6,0.3,1.2,0.7,1.8,0.9c1,0.4,1.9,1,2.6,1.8C277.2,11.8,277.4,12.5,277.4,13.3z"/>
</g>
<rect id="rect3379" x="198.8" y="20.1" class="st2" width="78.6" height="1.1"/>
<rect id="rect3379-4" y="20.1" class="st2" width="175" height="1.1"/>
</svg>
