<?xml version="1.0" encoding="utf-8"?>
<!-- Generator: Adobe Illustrator 25.4.1, SVG Export Plug-In . SVG Version: 6.00 Build 0)  -->
<svg version="1.1" id="Capa_1" xmlns="http://www.w3.org/2000/svg" xmlns:xlink="http://www.w3.org/1999/xlink" x="0px" y="0px"
	 viewBox="0 0 104.7 26.1" style="enable-background:new 0 0 104.7 26.1;" xml:space="preserve">
<style type="text/css">
	.st0{fill-rule:evenodd;clip-rule:evenodd;fill:#C65054;}
	.st1{fill:#C65054;}
	.st2{fill:#333333;}
</style>
<g id="g3370">
	<path id="path3408" class="st0" d="M8.4,2.1c3-3.7,8.9,0.6,8.1,3.2c-0.3,0.9-2.6,0.9-5,0S8,3.3,8.4,2.1z"/>
	<g id="_733798384">
		<path id="path3413" class="st0" d="M16.5,24.9c-3-0.7-5.5-2.5-7-5.2c2.1,0.8,4.2,1.5,6.1,2.1c2.5,0.7,4.9,1.6,7.2,2.7
			C20.8,25.2,18.6,25.3,16.5,24.9z"/>
		<path id="path3415" class="st0" d="M17.4,16.5c-4.3-1.3-7.9-2.6-10.1-4.2c-0.1-0.7-0.1-1.4-0.1-2c0-0.3,0.2-0.5,0.5-0.5h22.9
			c0.3,0,0.5,0.2,0.5,0.5c0,0,0,0,0,0c-0.1,3.1-0.8,7.6-3.4,10.9C25.2,18.9,21.3,17.7,17.4,16.5z"/>
	</g>
	<g id="_733798768">
		<path id="path3420" class="st0" d="M4.7,0.7c2.4-0.9,5.1-0.9,7.5,0.1c1.1,0.6-1.2,4.3-1.9,4C8.8,4.1,7.1,3.6,6,4
			C4.5,4.5,3.5,5.9,3.6,7.5c0,5.4,5.6,7.5,13.5,10c6.1,1.9,11.9,3.7,11.9,8.7c-4.1-2.3-8.4-4-12.9-5.2c-7.1-2.2-16-5-16-13.4
			C0,4.4,1.9,1.7,4.7,0.7z"/>
	</g>
</g>
<rect id="rect3379" x="31.1" y="20.1" class="st1" width="73.6" height="1.1"/>
<g>
	<g>
		<path class="st2" d="M37.7,4.1c1.7,0,2.9,0.3,3.7,1.1c0.8,0.7,1.2,1.7,1.2,3c0,0.6-0.1,1.1-0.2,1.7c-0.2,0.5-0.5,1-0.8,1.4
			c-0.4,0.4-0.9,0.7-1.6,1c-0.7,0.2-1.5,0.4-2.4,0.4l-1.2,0l0,4.7l-2.8,0L33.5,4.1L37.7,4.1z M37.6,6.4l-1.3,0l0,3.9l0.9,0
			c0.5,0,1-0.1,1.4-0.2c0.4-0.1,0.7-0.4,0.9-0.7c0.2-0.3,0.3-0.7,0.3-1.1c0-0.6-0.2-1.1-0.6-1.4C38.9,6.5,38.4,6.3,37.6,6.4z"/>
		<path class="st2" d="M57.1,10.5c0,1-0.1,1.9-0.4,2.8c-0.2,0.8-0.6,1.6-1.1,2.2c-0.5,0.6-1.2,1.1-1.9,1.4c-0.8,0.3-1.7,0.5-2.8,0.5
			c-1.1,0-2-0.1-2.8-0.5c-0.8-0.3-1.4-0.8-2-1.4c-0.5-0.6-0.9-1.3-1.2-2.1c-0.3-0.8-0.4-1.8-0.4-2.8c0-1.4,0.2-2.6,0.6-3.6
			c0.4-1,1.1-1.8,2-2.4c0.9-0.6,2.1-0.9,3.5-0.9c1.4,0,2.6,0.3,3.5,0.8c0.9,0.6,1.6,1.3,2.1,2.3S57.1,9.1,57.1,10.5z M47.5,10.6
			c0,0.9,0.1,1.7,0.4,2.4c0.2,0.7,0.6,1.2,1.1,1.5c0.5,0.4,1.1,0.5,1.9,0.5c0.8,0,1.4-0.2,1.9-0.6c0.5-0.4,0.8-0.9,1.1-1.5
			c0.2-0.7,0.3-1.5,0.3-2.4c0-1.4-0.3-2.5-0.8-3.3c-0.5-0.8-1.4-1.2-2.6-1.2c-0.8,0-1.4,0.2-1.9,0.6c-0.5,0.4-0.9,0.9-1.1,1.5
			S47.5,9.6,47.5,10.6z"/>
		<path class="st2" d="M63.6,3.8c1.2,0,2.2,0.1,3,0.4C67.4,4.5,68,5,68.4,5.5c0.4,0.6,0.6,1.3,0.6,2.2c0,0.6-0.1,1.1-0.3,1.6
			c-0.2,0.5-0.5,0.8-0.9,1.2c-0.4,0.3-0.8,0.6-1.2,0.8l3.9,5.7l-3.1,0l-3.2-5l-1.5,0l0,5.1l-2.8,0L59.8,3.9L63.6,3.8z M63.5,6.1
			l-0.8,0l0,3.6l0.9,0c0.9,0,1.6-0.2,2-0.5s0.6-0.8,0.6-1.4c0-0.6-0.2-1.1-0.7-1.3S64.4,6.1,63.5,6.1z"/>
		<path class="st2" d="M77.2,16.9l-2.8,0L74.3,6.1l-3.6,0l0-2.3l10-0.1l0,2.3l-3.6,0L77.2,16.9z"/>
		<path class="st2" d="M90.9,16.8l-1-3.1l-4.8,0l-0.9,3.1l-3,0l4.5-13.3l3.4,0l4.8,13.2L90.9,16.8z M89.2,11.3l-1-3.1
			c-0.1-0.2-0.1-0.5-0.2-0.8c-0.1-0.3-0.2-0.6-0.3-1c-0.1-0.3-0.2-0.6-0.2-0.9c-0.1,0.2-0.1,0.6-0.2,0.9c-0.1,0.4-0.2,0.7-0.3,1
			c-0.1,0.3-0.2,0.6-0.2,0.7l-0.9,3.1L89.2,11.3z"/>
		<path class="st2" d="M95.5,16.8L95.4,3.6l2.8,0l0.1,10.9l5.3,0l0,2.3L95.5,16.8z"/>
	</g>
</g>
</svg>
