<?xml version="1.0" encoding="utf-8"?>
<!-- Generator: Adobe Illustrator 25.4.1, SVG Export Plug-In . SVG Version: 6.00 Build 0)  -->
<svg version="1.1" id="Capa_1" xmlns="http://www.w3.org/2000/svg" xmlns:xlink="http://www.w3.org/1999/xlink" x="0px" y="0px"
	 viewBox="0 0 32 26.1" style="enable-background:new 0 0 32 26.1;" xml:space="preserve">
<style type="text/css">
	.st0{fill-rule:evenodd;clip-rule:evenodd;fill:#C65054;}
</style>
<g id="g3370">
	<path id="path3408" class="st0" d="M8.9,2.1c3-3.7,8.9,0.6,8.1,3.2c-0.3,0.9-2.6,0.9-5,0S8.4,3.3,8.9,2.1z"/>
	<g id="_733798384">
		<path id="path3413" class="st0" d="M17,24.9c-3-0.7-5.5-2.5-7-5.2c2.1,0.8,4.2,1.5,6.1,2.1c2.5,0.7,4.9,1.6,7.2,2.7
			C21.3,25.1,19.1,25.3,17,24.9z"/>
		<path id="path3415" class="st0" d="M17.9,16.5c-4.3-1.3-7.9-2.6-10.1-4.2c-0.1-0.7-0.1-1.4-0.1-2c0-0.3,0.2-0.5,0.5-0.5H31
			c0.3,0,0.5,0.2,0.5,0.5c0,0,0,0,0,0c-0.1,3.1-0.8,7.6-3.4,10.9C25.7,18.9,21.7,17.7,17.9,16.5z"/>
	</g>
	<g id="_733798768">
		<path id="path3420" class="st0" d="M5.2,0.7c2.4-0.9,5.1-0.9,7.5,0.1c1.1,0.6-1.2,4.3-1.9,4C9.3,4.1,7.5,3.6,6.5,4
			C5,4.5,4,5.9,4,7.4c0,5.4,5.6,7.5,13.5,10c6.1,1.9,11.9,3.7,11.9,8.7c-4.1-2.3-8.4-4-12.9-5.2c-7.1-2.2-16-5-16-13.4
			C0.5,4.4,2.4,1.7,5.2,0.7z"/>
	</g>
</g>
</svg>
