<svg id="Capa_1" data-name="Capa 1" xmlns="http://www.w3.org/2000/svg" viewBox="0 0 1000 1000"><defs><style>.cls-1{fill:#fff;fill-rule:evenodd;}</style></defs><g id="g3370"><path id="path3408" class="cls-1" d="M312.74,210.41c78.13-96.07,233.79,15.2,213.07,85.43-8.28,23.08-67.07,24.46-130.6,1.38-63.52-22.88-93.91-55-82.47-86.81Z"/><g id="_733798384" data-name=" 733798384"><path id="path3413" class="cls-1" d="M527,811.39c-88-20.67-145.88-73.14-183.47-136.29,54.71,22,110.83,39.57,161.87,55.35,60.33,18.8,141.26,44,188.45,71.17C693.84,801.62,607.8,828.26,527,811.39Z"/><path id="path3415" class="cls-1" d="M549.17,589.65C436.29,554.5,342.28,522.16,282.49,477.79c-2-18.53-3.08-36.09-3.47-52.35A13.17,13.17,0,0,1,292.28,412H895.75A13.16,13.16,0,0,1,909,425.44c-1.88,82.44-21.44,200.3-89.47,285.94C756.06,654,651.54,621.52,549.17,589.65Z"/></g><g id="_733798768" data-name=" 733798768"><path id="path3420" class="cls-1" d="M216.24,173.17c60.43-22.84,138.63-25.28,196.62,3.58,29.8,14.75-32.14,114-50.66,105.15C322.64,263,277.62,250.33,249.42,261,230.06,268.19,185,291.7,185,351.66c0,141.84,147.66,198.7,356.14,263.57,160.56,49.9,312.17,97.09,312.17,228.12-143.76-73.23-190.78-94.2-340-138.45C325.3,646.33,91.26,573.59,91.26,351.66,91.15,270.63,139.08,202.2,216.24,173.17Z"/></g></g></svg>