<svg id="Capa_1" data-name="Capa 1" xmlns="http://www.w3.org/2000/svg" viewBox="0 0 277.47 26.1">
    <defs>
        <style>
            .cls-1,
            .cls-4 {
                fill: #ffffff;
            }

            .cls-1 {
                fill-rule: evenodd;
            }

            .cls-2 {
                isolation: isolate;
            }

            .cls-3 {
                fill: #ffffff;
            }

        </style>
    </defs>
    <g id="g3370">
        <path id="path3408" class="cls-1"
            d="M187.45,4.14c3-3.65,8.88.58,8.09,3.24-.31.88-2.55.93-5,0S187,5.35,187.45,4.14Z"
            transform="translate(-11.27 -2.06)" />
        <g id="_733798384" data-name=" 733798384">
            <path id="path3413" class="cls-1"
                d="M195.58,27a10.8,10.8,0,0,1-7-5.17c2.08.83,4.21,1.5,6.14,2.1a41.06,41.06,0,0,1,7.16,2.7A14.54,14.54,0,0,1,195.58,27Z"
                transform="translate(-11.27 -2.06)" />
            <path id="path3415" class="cls-1"
                d="M196.43,18.53c-4.29-1.33-7.86-2.56-10.13-4.24-.07-.71-.11-1.37-.13-2a.51.51,0,0,1,.51-.51h22.9a.5.5,0,0,1,.5.51c-.07,3.13-.81,7.6-3.39,10.85C204.28,21,200.31,19.74,196.43,18.53Z"
                transform="translate(-11.27 -2.06)" />
        </g>
        <g id="_733798768" data-name=" 733798768">
            <path id="path3420" class="cls-1"
                d="M183.79,2.73a9.83,9.83,0,0,1,7.46.13c1.13.56-1.22,4.33-1.92,4-1.5-.71-3.21-1.2-4.28-.79a3.57,3.57,0,0,0-2.44,3.44c0,5.38,5.6,7.54,13.51,10,6.1,1.9,11.85,3.69,11.85,8.66a59.28,59.28,0,0,0-12.9-5.25c-7.14-2.23-16-5-16-13.41A7.1,7.1,0,0,1,183.79,2.73Z"
                transform="translate(-11.27 -2.06)" />
        </g>
    </g>
    <g class="cls-2">
        <path class="cls-3"
            d="M20.55,10.41a4.08,4.08,0,0,1-1.35,3.3,5.78,5.78,0,0,1-3.83,1.14H14.15V19.6H11.32V6.24h4.27a5.69,5.69,0,0,1,3.7,1A3.83,3.83,0,0,1,20.55,10.41Zm-6.4,2.12h.93A3.1,3.1,0,0,0,17,12a1.8,1.8,0,0,0,.65-1.5A1.87,1.87,0,0,0,17.15,9a2.57,2.57,0,0,0-1.71-.47H14.15Z"
            transform="translate(-11.27 -2.06)" />
        <path class="cls-3" d="M34,19.61H31.2V13.84H25.91v5.77H23.08V6.24h2.83v5.24H31.2V6.24H34Z"
            transform="translate(-11.27 -2.06)" />
        <path class="cls-3"
            d="M45.58,19.61l-1-3.18H39.74l-1,3.18H35.72L40.44,6.19H43.9l4.73,13.42Zm-1.65-5.56q-1.35-4.32-1.51-4.89t-.24-.9q-.3,1.17-1.73,5.79Z"
            transform="translate(-11.27 -2.06)" />
        <path class="cls-3"
            d="M53.15,14.48v5.13H50.32V6.24h3.89a6.66,6.66,0,0,1,4,1,3.55,3.55,0,0,1,1.31,3,3.56,3.56,0,0,1-.65,2.1,4.34,4.34,0,0,1-1.84,1.44q3,4.5,3.93,5.82H57.85l-3.19-5.13H53.15Zm0-2.3h.91a3.45,3.45,0,0,0,2-.45,1.6,1.6,0,0,0,.64-1.41A1.47,1.47,0,0,0,56,9a4,4,0,0,0-2-.4h-.86Z"
            transform="translate(-11.27 -2.06)" />
        <path class="cls-3"
            d="M68.33,19.61,65.11,9.12H65c.12,2.13.17,3.56.17,4.27v6.22H62.67V6.24h3.86l3.16,10.22h0L73.1,6.24H77V19.6H74.32V13.27c0-.3,0-.64,0-1s0-1.43.12-3.11h-.08L70.92,19.6H68.33Z"
            transform="translate(-11.27 -2.06)" />
        <path class="cls-3"
            d="M88.5,19.61l-1-3.18H82.66l-1,3.18h-3L83.36,6.19h3.46l4.73,13.42Zm-1.64-5.56q-1.35-4.32-1.51-4.89t-.24-.9q-.3,1.17-1.73,5.79Z"
            transform="translate(-11.27 -2.06)" />
        <path class="cls-3"
            d="M98.91,8.41a2.9,2.9,0,0,0-2.48,1.2A5.63,5.63,0,0,0,95.55,13q0,4.47,3.35,4.47a10.54,10.54,0,0,0,3.41-.7v2.38a9.41,9.41,0,0,1-3.67.69A5.61,5.61,0,0,1,94.18,18,7.49,7.49,0,0,1,92.64,13,8.21,8.21,0,0,1,93.4,9.3a5.47,5.47,0,0,1,2.18-2.4,6.53,6.53,0,0,1,3.33-.84,8.94,8.94,0,0,1,3.91.94l-.91,2.3a15,15,0,0,0-1.51-.62A4.39,4.39,0,0,0,98.91,8.41Z"
            transform="translate(-11.27 -2.06)" />
        <path class="cls-3" d="M112.86,19.61h-7.7V6.24h7.7V8.56H108v2.93h4.52v2.32H108v3.45h4.86Z"
            transform="translate(-11.27 -2.06)" />
        <path class="cls-3"
            d="M126.53,6.24v8.65a5,5,0,0,1-.66,2.6A4.33,4.33,0,0,1,124,19.2a6.77,6.77,0,0,1-3,.59,5.66,5.66,0,0,1-4-1.32,4.7,4.7,0,0,1-1.43-3.62V6.24h2.82v8.18a3.46,3.46,0,0,0,.62,2.27,2.6,2.6,0,0,0,2.06.72,2.48,2.48,0,0,0,2-.73,3.41,3.41,0,0,0,.63-2.28V6.24Z"
            transform="translate(-11.27 -2.06)" />
        <path class="cls-3" d="M135,19.61h-2.83V8.6H128.5V6.24h10.09V8.6H135Z" transform="translate(-11.27 -2.06)" />
        <path class="cls-3" d="M140.64,19.61V6.24h2.83V19.6h-2.83Z" transform="translate(-11.27 -2.06)" />
        <path class="cls-3"
            d="M152.52,8.41A2.9,2.9,0,0,0,150,9.61a5.63,5.63,0,0,0-.88,3.35q0,4.47,3.35,4.47a10.54,10.54,0,0,0,3.41-.7v2.38a9.41,9.41,0,0,1-3.67.69A5.61,5.61,0,0,1,147.79,18,7.49,7.49,0,0,1,146.25,13,8.21,8.21,0,0,1,147,9.3a5.47,5.47,0,0,1,2.18-2.4,6.53,6.53,0,0,1,3.33-.84,8.94,8.94,0,0,1,3.91.94l-.91,2.3A15,15,0,0,0,154,8.68,4.48,4.48,0,0,0,152.52,8.41Z"
            transform="translate(-11.27 -2.06)" />
        <path class="cls-3"
            d="M167,19.61l-1-3.18h-4.87l-1,3.18h-3l4.72-13.42h3.46L170,19.61Zm-1.65-5.56Q164,9.73,163.79,9.16t-.24-.9q-.3,1.17-1.73,5.79Z"
            transform="translate(-11.27 -2.06)" />
        <path class="cls-3" d="M171.68,19.61V6.24h2.83v11h5.42V19.6h-8.25Z" transform="translate(-11.27 -2.06)" />
    </g>
    <g class="cls-2">
        <path class="cls-3" d="M220.07,19.08h-7.7V5.72h7.7V8h-4.86V11h4.52v2.32h-4.52v3.45h4.86Z"
            transform="translate(-11.27 -2.06)" />
        <path class="cls-3"
            d="M233.66,19.08h-3.24l-3.11-5-3.11,5h-3l4.43-6.89-4.15-6.47h3.13l2.88,4.81,2.82-4.81h3l-4.2,6.63Z"
            transform="translate(-11.27 -2.06)" />
        <path class="cls-3"
            d="M244.57,9.89a4.05,4.05,0,0,1-1.36,3.3,5.74,5.74,0,0,1-3.83,1.14h-1.22v4.75h-2.83V5.72h4.27a5.67,5.67,0,0,1,3.7,1A3.78,3.78,0,0,1,244.57,9.89ZM238.17,12h.93a3.12,3.12,0,0,0,2-.52,1.8,1.8,0,0,0,.65-1.5,1.87,1.87,0,0,0-.54-1.47,2.52,2.52,0,0,0-1.7-.48h-1.29v4Z"
            transform="translate(-11.27 -2.06)" />
        <path class="cls-3" d="M254.79,19.08h-7.7V5.72h7.7V8h-4.86V11h4.52v2.32h-4.52v3.45h4.86Z"
            transform="translate(-11.27 -2.06)" />
        <path class="cls-3"
            d="M260.41,14v5.13h-2.83V5.72h3.89a6.66,6.66,0,0,1,4,1,3.55,3.55,0,0,1,1.31,3,3.56,3.56,0,0,1-.65,2.1,4.28,4.28,0,0,1-1.84,1.44q3,4.5,3.93,5.82h-3.14L261.92,14h-1.51Zm0-2.31h.91a3.45,3.45,0,0,0,2-.45,1.6,1.6,0,0,0,.64-1.41,1.47,1.47,0,0,0-.65-1.35,4,4,0,0,0-2-.4h-.86Z"
            transform="translate(-11.27 -2.06)" />
        <path class="cls-3" d="M275.09,19.08h-2.83v-11h-3.63V5.72h10.09V8.08h-3.63Z"
            transform="translate(-11.27 -2.06)" />
        <path class="cls-3"
            d="M288.67,15.37a3.43,3.43,0,0,1-1.3,2.85,5.63,5.63,0,0,1-3.62,1,8.54,8.54,0,0,1-3.78-.8V15.83a15.44,15.44,0,0,0,2.29.85,6.54,6.54,0,0,0,1.71.25,2.42,2.42,0,0,0,1.43-.36,1.23,1.23,0,0,0,.5-1.06,1.16,1.16,0,0,0-.22-.7,2.65,2.65,0,0,0-.64-.59,17.41,17.41,0,0,0-1.74-.91,8,8,0,0,1-1.84-1.11,4.16,4.16,0,0,1-1-1.23,3.58,3.58,0,0,1-.37-1.65,3.45,3.45,0,0,1,1.21-2.79,5,5,0,0,1,3.32-1,7.64,7.64,0,0,1,2,.25,15.66,15.66,0,0,1,2,.69l-.91,2.2a12.55,12.55,0,0,0-1.77-.61,5.49,5.49,0,0,0-1.38-.17,1.79,1.79,0,0,0-1.23.37,1.29,1.29,0,0,0-.44,1,1.23,1.23,0,0,0,.17.65,1.89,1.89,0,0,0,.55.54,17.29,17.29,0,0,0,1.79.94,7.25,7.25,0,0,1,2.57,1.8A3.4,3.4,0,0,1,288.67,15.37Z"
            transform="translate(-11.27 -2.06)" />
    </g>
    <rect id="rect3379" class="cls-4" x="198.83" y="20.07" width="78.64" height="1.12" />
    <rect id="rect3379-4" class="cls-4" y="20.07" width="174.97" height="1.12" />
</svg>
